<svg id="Layer_1" data-name="Layer 1" xmlns="http://www.w3.org/2000/svg" viewBox="0 0 143.95 39.48"><defs><style>.cls-1{fill:#000;}.cls-2{fill:#e8502e;}</style></defs><path class="cls-1" d="M9.77,39.08H0V5.51H9.93V8a5.21,5.21,0,0,0,.52-.28A11.25,11.25,0,0,1,22.39,6a9.91,9.91,0,0,1,6.21,9.5c.18,7.83,0,15.66,0,23.56H18.43V18.83c0-3-2-4.81-4.66-4.48-2,.25-3.12,1.51-3.58,4a5.1,5.1,0,0,0-.39,1.37C9.76,26.23,9.77,32.65,9.77,39.08Z"/><path class="cls-1" d="M72.46,21.92C68.7,16.43,65,11,61.21,5.46H73.13c.31,0,.7.44.91.77,1.74,2.73,3.45,5.47,5.25,8.35.24-.33.45-.58.62-.85,1.57-2.51,3.13-5,4.73-7.5.21-.33.6-.77.92-.77h11.9L86.21,21.92,97.82,39a1.88,1.88,0,0,1-.45.12h-11a1.67,1.67,0,0,1-1.18-.69C83.41,35.72,81.73,33,80,30.29c-.21-.33-.44-.65-.73-1.07-1.9,3-3.76,6-5.55,8.9a1.8,1.8,0,0,1-1.78,1c-3.67-.06-7.33,0-11.21,0Z"/><path class="cls-1" d="M41.71,25.72c.33,3.59,3,5.17,6.21,5.14,2.85,0,4.11-.55,6.6-2.67l6.07,6.11a15.63,15.63,0,0,1-12.06,5.17A28.6,28.6,0,0,1,42.69,39a12.46,12.46,0,0,1-10.15-9.67,25.2,25.2,0,0,1,0-13.62c2-7,7.85-11.08,15.18-10.6,7.49.49,12.84,5.26,13.83,12.56a70.09,70.09,0,0,1,.26,7.53H42.92A3.61,3.61,0,0,0,41.71,25.72Zm0-7.06c.3.17.59.49.89.5h8.26c.31,0,.61-.31.91-.47a13.3,13.3,0,0,0-.23-1.54,4.48,4.48,0,0,0-4.71-3.59A4.53,4.53,0,0,0,42,17a15.61,15.61,0,0,0-.3,1.66Z"/><path class="cls-1" d="M99.78,0h9.83V5.42h7.83v8.27h-7.71V30.42h7.73v8.47a88.48,88.48,0,0,1-10.17-.08c-4.54-.53-7.57-4.23-7.82-8.81a5.8,5.8,0,0,0,.25-1.24V23.37Q99.77,11.68,99.78,0Z"/><path class="cls-2" d="M121.3,5.47H133A1.33,1.33,0,0,1,134,6q5,7.95,10,15.94-5.25,8.41-10.46,16.71a1.09,1.09,0,0,1-.72.5H120.88c.31-.49.51-.81.73-1.13,3.37-5,6.7-9.94,10.13-14.86a1.81,1.81,0,0,0,0-2.47C128.47,16,125.26,11.22,122,6.5A8.84,8.84,0,0,1,121.3,5.47Z"/><path class="cls-1" d="M99.78,0V28.76A5.93,5.93,0,0,1,99.47,30a11.27,11.27,0,0,1-.13-1.29V1.09A3.25,3.25,0,0,1,99.78,0Z"/><path class="cls-1" d="M41.71,25.72a3.42,3.42,0,0,1,1.23-.51H61.83v.25l-.18.14-18.49,0A11.36,11.36,0,0,0,41.71,25.72Z"/><path class="cls-1" d="M9.77,39.08V19.8a5.1,5.1,0,0,1,.39-1.37V38.87l-.14.18Z"/><path class="cls-1" d="M41.7,18.66H51.76c-.3.16-.6.47-.91.47H42.59C42.29,19.15,42,18.83,41.7,18.66Z"/></svg>